<mxfile host="app.diagrams.net" modified="2024-02-28T09:45:50.780Z" agent="Mozilla/5.0 (Windows NT 10.0; Win64; x64) AppleWebKit/537.36 (KHTML, like Gecko) Chrome/121.0.0.0 Safari/537.36" etag="jSWGcXJdjdLspLjXI_xX" version="21.5.0" type="device">
  <diagram name="Seite-1" id="3mzIpRx6uvCYNkwjcoss">
    <mxGraphModel dx="1434" dy="716" grid="0" gridSize="10" guides="1" tooltips="1" connect="1" arrows="1" fold="1" page="1" pageScale="1" pageWidth="1169" pageHeight="827" math="0" shadow="0">
      <root>
        <mxCell id="0" />
        <mxCell id="1" parent="0" />
        <mxCell id="lhUbZMyjtj_F1UVMvikU-6" value="" style="endArrow=none;dashed=1;html=1;rounded=0;entryX=0.5;entryY=1;entryDx=0;entryDy=0;" edge="1" parent="1">
          <mxGeometry width="50" height="50" relative="1" as="geometry">
            <mxPoint x="419.5" y="360" as="sourcePoint" />
            <mxPoint x="419.5" y="160" as="targetPoint" />
          </mxGeometry>
        </mxCell>
        <mxCell id="lhUbZMyjtj_F1UVMvikU-16" value="" style="rounded=0;whiteSpace=wrap;html=1;" vertex="1" parent="1">
          <mxGeometry x="410" y="200" width="20" height="120" as="geometry" />
        </mxCell>
        <mxCell id="lhUbZMyjtj_F1UVMvikU-1" value="CTO" style="rounded=0;whiteSpace=wrap;html=1;" vertex="1" parent="1">
          <mxGeometry x="160" y="120" width="120" height="40" as="geometry" />
        </mxCell>
        <mxCell id="lhUbZMyjtj_F1UVMvikU-2" value="Technologie-Administration" style="rounded=0;whiteSpace=wrap;html=1;" vertex="1" parent="1">
          <mxGeometry x="360" y="120" width="120" height="40" as="geometry" />
        </mxCell>
        <mxCell id="lhUbZMyjtj_F1UVMvikU-3" value="Server" style="rounded=0;whiteSpace=wrap;html=1;" vertex="1" parent="1">
          <mxGeometry x="560" y="120" width="120" height="40" as="geometry" />
        </mxCell>
        <mxCell id="lhUbZMyjtj_F1UVMvikU-4" value="Datenbank" style="rounded=0;whiteSpace=wrap;html=1;" vertex="1" parent="1">
          <mxGeometry x="760" y="120" width="120" height="40" as="geometry" />
        </mxCell>
        <mxCell id="lhUbZMyjtj_F1UVMvikU-5" value="" style="endArrow=none;dashed=1;html=1;rounded=0;entryX=0.5;entryY=1;entryDx=0;entryDy=0;" edge="1" parent="1" source="lhUbZMyjtj_F1UVMvikU-9" target="lhUbZMyjtj_F1UVMvikU-1">
          <mxGeometry width="50" height="50" relative="1" as="geometry">
            <mxPoint x="220" y="360" as="sourcePoint" />
            <mxPoint x="150" y="270" as="targetPoint" />
          </mxGeometry>
        </mxCell>
        <mxCell id="lhUbZMyjtj_F1UVMvikU-7" value="" style="endArrow=none;dashed=1;html=1;rounded=0;entryX=0.5;entryY=1;entryDx=0;entryDy=0;" edge="1" parent="1" source="lhUbZMyjtj_F1UVMvikU-20">
          <mxGeometry width="50" height="50" relative="1" as="geometry">
            <mxPoint x="619.5" y="360" as="sourcePoint" />
            <mxPoint x="619.5" y="160" as="targetPoint" />
          </mxGeometry>
        </mxCell>
        <mxCell id="lhUbZMyjtj_F1UVMvikU-8" value="" style="endArrow=none;dashed=1;html=1;rounded=0;entryX=0.5;entryY=1;entryDx=0;entryDy=0;" edge="1" parent="1" source="lhUbZMyjtj_F1UVMvikU-22">
          <mxGeometry width="50" height="50" relative="1" as="geometry">
            <mxPoint x="819.5" y="360" as="sourcePoint" />
            <mxPoint x="819.5" y="160" as="targetPoint" />
          </mxGeometry>
        </mxCell>
        <mxCell id="lhUbZMyjtj_F1UVMvikU-10" value="" style="endArrow=none;dashed=1;html=1;rounded=0;entryX=0.5;entryY=1;entryDx=0;entryDy=0;" edge="1" parent="1" target="lhUbZMyjtj_F1UVMvikU-9">
          <mxGeometry width="50" height="50" relative="1" as="geometry">
            <mxPoint x="220" y="360" as="sourcePoint" />
            <mxPoint x="220" y="160" as="targetPoint" />
          </mxGeometry>
        </mxCell>
        <mxCell id="lhUbZMyjtj_F1UVMvikU-9" value="" style="rounded=0;whiteSpace=wrap;html=1;" vertex="1" parent="1">
          <mxGeometry x="210" y="200" width="20" height="120" as="geometry" />
        </mxCell>
        <mxCell id="lhUbZMyjtj_F1UVMvikU-11" value="" style="endArrow=classic;html=1;rounded=0;" edge="1" parent="1">
          <mxGeometry width="50" height="50" relative="1" as="geometry">
            <mxPoint x="220" y="200" as="sourcePoint" />
            <mxPoint x="410" y="200" as="targetPoint" />
          </mxGeometry>
        </mxCell>
        <mxCell id="lhUbZMyjtj_F1UVMvikU-12" value="Technologie-Eingaben" style="edgeLabel;html=1;align=center;verticalAlign=middle;resizable=0;points=[];" vertex="1" connectable="0" parent="lhUbZMyjtj_F1UVMvikU-11">
          <mxGeometry x="-0.11" y="1" relative="1" as="geometry">
            <mxPoint as="offset" />
          </mxGeometry>
        </mxCell>
        <mxCell id="lhUbZMyjtj_F1UVMvikU-13" value="" style="endArrow=classic;html=1;rounded=0;" edge="1" parent="1">
          <mxGeometry width="50" height="50" relative="1" as="geometry">
            <mxPoint x="430" y="200" as="sourcePoint" />
            <mxPoint x="430" y="240" as="targetPoint" />
            <Array as="points">
              <mxPoint x="480" y="200" />
              <mxPoint x="480" y="240" />
            </Array>
          </mxGeometry>
        </mxCell>
        <mxCell id="lhUbZMyjtj_F1UVMvikU-14" value="Validierung" style="edgeLabel;html=1;align=center;verticalAlign=middle;resizable=0;points=[];" vertex="1" connectable="0" parent="lhUbZMyjtj_F1UVMvikU-13">
          <mxGeometry x="-0.11" y="1" relative="1" as="geometry">
            <mxPoint x="-1" y="9" as="offset" />
          </mxGeometry>
        </mxCell>
        <mxCell id="lhUbZMyjtj_F1UVMvikU-18" value="" style="endArrow=classic;html=1;rounded=0;entryX=0;entryY=0.5;entryDx=0;entryDy=0;" edge="1" parent="1" target="lhUbZMyjtj_F1UVMvikU-20">
          <mxGeometry width="50" height="50" relative="1" as="geometry">
            <mxPoint x="430" y="259.5" as="sourcePoint" />
            <mxPoint x="600" y="260" as="targetPoint" />
          </mxGeometry>
        </mxCell>
        <mxCell id="lhUbZMyjtj_F1UVMvikU-19" value="Technologie" style="edgeLabel;html=1;align=center;verticalAlign=middle;resizable=0;points=[];" vertex="1" connectable="0" parent="lhUbZMyjtj_F1UVMvikU-18">
          <mxGeometry x="-0.11" y="1" relative="1" as="geometry">
            <mxPoint as="offset" />
          </mxGeometry>
        </mxCell>
        <mxCell id="lhUbZMyjtj_F1UVMvikU-21" value="" style="endArrow=none;dashed=1;html=1;rounded=0;entryX=0.5;entryY=1;entryDx=0;entryDy=0;" edge="1" parent="1" target="lhUbZMyjtj_F1UVMvikU-20">
          <mxGeometry width="50" height="50" relative="1" as="geometry">
            <mxPoint x="619.5" y="360" as="sourcePoint" />
            <mxPoint x="619.5" y="160" as="targetPoint" />
          </mxGeometry>
        </mxCell>
        <mxCell id="lhUbZMyjtj_F1UVMvikU-20" value="" style="rounded=0;whiteSpace=wrap;html=1;" vertex="1" parent="1">
          <mxGeometry x="610" y="200" width="20" height="120" as="geometry" />
        </mxCell>
        <mxCell id="lhUbZMyjtj_F1UVMvikU-23" value="" style="endArrow=none;dashed=1;html=1;rounded=0;entryX=0.5;entryY=1;entryDx=0;entryDy=0;" edge="1" parent="1" target="lhUbZMyjtj_F1UVMvikU-22">
          <mxGeometry width="50" height="50" relative="1" as="geometry">
            <mxPoint x="819.5" y="360" as="sourcePoint" />
            <mxPoint x="819.5" y="160" as="targetPoint" />
          </mxGeometry>
        </mxCell>
        <mxCell id="lhUbZMyjtj_F1UVMvikU-22" value="" style="rounded=0;whiteSpace=wrap;html=1;" vertex="1" parent="1">
          <mxGeometry x="810" y="200" width="20" height="120" as="geometry" />
        </mxCell>
        <mxCell id="lhUbZMyjtj_F1UVMvikU-24" value="" style="endArrow=classic;html=1;rounded=0;entryX=0;entryY=0.5;entryDx=0;entryDy=0;" edge="1" parent="1">
          <mxGeometry width="50" height="50" relative="1" as="geometry">
            <mxPoint x="630" y="259.5" as="sourcePoint" />
            <mxPoint x="810" y="260" as="targetPoint" />
          </mxGeometry>
        </mxCell>
        <mxCell id="lhUbZMyjtj_F1UVMvikU-25" value="INSERT Technologie" style="edgeLabel;html=1;align=center;verticalAlign=middle;resizable=0;points=[];" vertex="1" connectable="0" parent="lhUbZMyjtj_F1UVMvikU-24">
          <mxGeometry x="-0.11" y="1" relative="1" as="geometry">
            <mxPoint as="offset" />
          </mxGeometry>
        </mxCell>
        <mxCell id="lhUbZMyjtj_F1UVMvikU-26" value="Laufzeitsicht: neue Technologie erfassen" style="text;html=1;strokeColor=none;fillColor=none;align=center;verticalAlign=middle;whiteSpace=wrap;rounded=0;" vertex="1" parent="1">
          <mxGeometry x="160" y="40" width="720" height="40" as="geometry" />
        </mxCell>
        <mxCell id="lhUbZMyjtj_F1UVMvikU-27" value="" style="endArrow=classic;html=1;rounded=0;entryX=0;entryY=0.5;entryDx=0;entryDy=0;exitX=0;exitY=0.75;exitDx=0;exitDy=0;" edge="1" parent="1" source="lhUbZMyjtj_F1UVMvikU-22">
          <mxGeometry width="50" height="50" relative="1" as="geometry">
            <mxPoint x="450" y="290" as="sourcePoint" />
            <mxPoint x="630" y="290.5" as="targetPoint" />
          </mxGeometry>
        </mxCell>
        <mxCell id="lhUbZMyjtj_F1UVMvikU-28" value="INSERT result" style="edgeLabel;html=1;align=center;verticalAlign=middle;resizable=0;points=[];" vertex="1" connectable="0" parent="lhUbZMyjtj_F1UVMvikU-27">
          <mxGeometry x="-0.11" y="1" relative="1" as="geometry">
            <mxPoint as="offset" />
          </mxGeometry>
        </mxCell>
        <mxCell id="lhUbZMyjtj_F1UVMvikU-29" value="" style="endArrow=classic;html=1;rounded=0;entryX=0;entryY=0.5;entryDx=0;entryDy=0;exitX=0;exitY=0.75;exitDx=0;exitDy=0;" edge="1" parent="1">
          <mxGeometry width="50" height="50" relative="1" as="geometry">
            <mxPoint x="610" y="290" as="sourcePoint" />
            <mxPoint x="430" y="290.5" as="targetPoint" />
          </mxGeometry>
        </mxCell>
        <mxCell id="lhUbZMyjtj_F1UVMvikU-30" value="INSERT result" style="edgeLabel;html=1;align=center;verticalAlign=middle;resizable=0;points=[];" vertex="1" connectable="0" parent="lhUbZMyjtj_F1UVMvikU-29">
          <mxGeometry x="-0.11" y="1" relative="1" as="geometry">
            <mxPoint as="offset" />
          </mxGeometry>
        </mxCell>
        <mxCell id="lhUbZMyjtj_F1UVMvikU-32" value="" style="endArrow=classic;html=1;rounded=0;entryX=0;entryY=0.5;entryDx=0;entryDy=0;exitX=0;exitY=0.75;exitDx=0;exitDy=0;" edge="1" parent="1">
          <mxGeometry width="50" height="50" relative="1" as="geometry">
            <mxPoint x="410" y="290" as="sourcePoint" />
            <mxPoint x="230" y="290.5" as="targetPoint" />
          </mxGeometry>
        </mxCell>
        <mxCell id="lhUbZMyjtj_F1UVMvikU-33" value="Technologie gespeichert" style="edgeLabel;html=1;align=center;verticalAlign=middle;resizable=0;points=[];" vertex="1" connectable="0" parent="lhUbZMyjtj_F1UVMvikU-32">
          <mxGeometry x="-0.11" y="1" relative="1" as="geometry">
            <mxPoint as="offset" />
          </mxGeometry>
        </mxCell>
      </root>
    </mxGraphModel>
  </diagram>
</mxfile>
